# xmcd
# 
# Track frame offsets:
#     187
#     2115
#     7745
#     11005
#     16032
#     21095
#     24667
#     27915
#     30105
#     33425
#     36210
#     37832
#     38977
#     42575
#     48760
#     52567
#     56002
#     58662
#     60432
#     66217
#     71432
#     75585
#     77817
#     86377
#     89402
#     92910
#     96975
#     98122
#     100172
#     102442
#     106057
#     109705
#     118015
#     126810
#     135210
#     141775
#     143897
#     145457
#     154125
#     164980
#     175052
#     188885
#     198247
#     209807
# 
# Disc length: 2893
# 
# Revision: 3
# Processed by: cddbd v1.5.2PL0 Copyright (c) Steve Scherf et al.
# Submitted via: BonkEnc v1.0.8
# 
DISCID=420b4b2c
DTITLE=misc - 効果音大全集43 人体の発する音とイメージ音各種
DYEAR=0
DGENRE=misc
TTITLE0=胃ケイレン
TTITLE1=骨がカラカラ
TTITLE2=脳の中
TTITLE3=心臓(ペコペコ)
TTITLE4=心臓(密着マイク)
TTITLE5=おなら連発
TTITLE6=おなかが鳴る
TTITLE7=ゴソゴソ毛が生える
TTITLE8=膀胱〜水洗
TTITLE9=胃の音〜おなら
TTITLE10=歯軋り
TTITLE11=喉を鳴らす
TTITLE12=キス
TTITLE13=うどんをすする
TTITLE14=ソーメンをすする
TTITLE15=ラーメンをすする
TTITLE16=スパゲティをたべる
TTITLE17=みそ汁を吸う
TTITLE18=そばをズルズルすする
TTITLE19=豆菓子を食べる
TTITLE20=ポテトチップス1
TTITLE21=ポテトチップス2
TTITLE22=カレーライスを食べる
TTITLE23=豆餅をかじる
TTITLE24=お茶漬けをすする
TTITLE25=西瓜を食べる
TTITLE26=リンゴをかじる(まるごと)
TTITLE27=リンゴをかじる(切ったもの)
TTITLE28=あくび
TTITLE29=しゃっくり
TTITLE30=くしゃみ
TTITLE31=うめき(苦痛,悩み)
TTITLE32=泣き(シクシク,大泣き)
TTITLE33=笑い(クスクス,ヒヒヒ,大笑い)
TTITLE34=咳(コンコン,ゼイゼイ,威張って)
TTITLE35=〈イメージ音〉~悲鳴(恐怖の感じ)
TTITLE36=怒り(不正を正す)
TTITLE37=地震
TTITLE38=台風
TTITLE39=深山幽谷
TTITLE40=海洋
TTITLE41=大渓谷の急流
TTITLE42=大瀑布
TTITLE43=恐竜の出る湖
EXTD=
EXTT0=
EXTT1=
EXTT2=
EXTT3=
EXTT4=
EXTT5=
EXTT6=
EXTT7=
EXTT8=
EXTT9=
EXTT10=
EXTT11=
EXTT12=
EXTT13=
EXTT14=
EXTT15=
EXTT16=
EXTT17=
EXTT18=
EXTT19=
EXTT20=
EXTT21=
EXTT22=
EXTT23=
EXTT24=
EXTT25=
EXTT26=
EXTT27=
EXTT28=
EXTT29=
EXTT30=
EXTT31=
EXTT32=
EXTT33=
EXTT34=
EXTT35=
EXTT36=
EXTT37=
EXTT38=
EXTT39=
EXTT40=
EXTT41=
EXTT42=
EXTT43=
PLAYORDER=
